<svg xml:space="preserve" style="max-height: 500px" viewBox="195.8464 304.8 630.784 356.352" y="0px" x="0px" xmlns:xlink="http://www.w3.org/1999/xlink" xmlns="http://www.w3.org/2000/svg" id="Layer_2" version="1.1" width="630.784" height="356.352">
<style type="text/css">
	.st1{fill:#00e187;}
</style>
<g>
</g>
<g>
	<g>
		<path d="M495.6,340.2c-8,0-16,0-24,0c-3.6,0-7.1,0.1-10.6,0.3c-7.5,0.4-14.8,1.5-22.2,3.6&#10;&#9;&#9;&#9;c-14,4.1-27.5,10.3-39.2,19.1c-12.8,9.6-20.9,21.9-29.4,35.2c-5.3,8.2-10.5,16.5-15.8,24.7c-7,10.9-13.9,21.8-20.9,32.7&#10;&#9;&#9;&#9;c-8,12.5-16,25-24,37.5c-8.3,13.1-16.7,26.1-25,39.2c-8,12.5-16,25-24,37.5c-7,10.9-13.9,21.8-20.9,32.7&#10;&#9;&#9;&#9;c-5.2,8.2-10.5,16.4-15.7,24.7c-2.9,4.5-5.7,8.9-8.6,13.4c-0.3,0.5-3.8,5.7-4.1,6.2h90.2l152.6-238.8c0.2,0,0.3,0,0.5-0.1V647h76&#10;&#9;&#9;&#9;V340.2c-3.7,0-7.3,0-11,0C511.6,340.2,503.6,340.2,495.6,340.2z" class="st1"/>
		<path d="M751.8,564.9c-11.2,9.5-25.2,15.2-40.4,15.2c-32.5,0-59.5-25.8-64.9-59.7l0,0l0.4-0.6l114.7-179.5h-90.2&#10;&#9;&#9;&#9;c-6.6,10.4-13.3,20.8-19.9,31.2c-8.3,13.1-16.7,26.1-25,39.2c-8,12.5-16,25-24,37.6c-7,10.9-13.9,21.8-20.9,32.7&#10;&#9;&#9;&#9;c-5.3,8.2-10.5,16.4-15.8,24.7c-2.8,4.5-5.7,8.9-8.6,13.4c-0.3,0.5-0.6,1-0.9,1.5h23c6.2,70.7,63,126.7,132.2,126.7&#10;&#9;&#9;&#9;c40.5,0,76.9-19.1,101.3-49.1L751.8,564.9z" class="st1"/>
	</g>
</g>
</svg>